<?xml version="1.0" encoding="UTF-8"?>
<svg id="Camada_2" data-name="Camada 2" xmlns="http://www.w3.org/2000/svg" viewBox="0 0 237.11 57.2">
  <defs>
    <style>
      .cls-1 {
        fill: #726963;
      }
    </style>
  </defs>
  <g id="Menu_e_Rodapé" data-name="Menu e Rodapé">
    <g>
      <g>
        <g>
          <path class="cls-1" d="m82.93,24.67c4.75,0,8.25-3.34,8.25-4.91v-4.3h-6.33s-.26,0-.26-.48.26-.48.26-.48h6.65c.39,0,.64.26.64.64v4.62c0,2.25-4.14,5.88-9.34,5.88-6.45,0-11.72-4.05-11.72-11.85,0-9.06,5.97-12.88,12.01-12.88,4.66,0,7.93,2.47,7.93,5.84,0,1.44-.67,2.6-.93,2.6-.19,0-.32-.13-.32-.32,0-.22.29-.8.32-2.02.1-3.08-2.99-5.14-7-5.14-5.59,0-11.05,3.18-11.05,11.91,0,7.39,4.82,10.89,10.89,10.89Z"/>
          <path class="cls-1" d="m98.9,25.09s-.06.22-.48.22-.48-.22-.48-.22V5.05s.06-.19.48-.19.48.19.48.19v20.04Z"/>
          <path class="cls-1" d="m104.48,15.13c0-6.29,4.91-10.63,10.18-10.63s10.15,4.33,10.15,10.63-4.62,10.47-10.15,10.47-10.18-4.24-10.18-10.47Zm19.39,0c0-5.81-4.27-9.66-9.22-9.66s-9.22,3.85-9.22,9.66,4.3,9.5,9.22,9.5,9.22-3.79,9.22-9.5Z"/>
          <path class="cls-1" d="m146.16,5.11s.13-.26.48-.26c.39,0,.58.1.58.19,0,.13-.1.29-.1.29l-9.6,19.97s-.1.29-.45.29-.42-.29-.42-.29l-9.6-19.97s-.1-.16-.1-.29c0-.1.16-.19.55-.19.35,0,.51.26.51.26l9.05,18.98,9.09-18.98Z"/>
          <path class="cls-1" d="m157.92,4.95l9.47,19.88s.1.16.1.26c0,.13-.16.22-.55.22-.35,0-.55-.26-.55-.26l-2.09-4.4h-13.94l-2.09,4.4s-.19.26-.55.26c-.39,0-.55-.1-.55-.22,0-.1.1-.26.1-.26l9.47-19.88s.16-.45.58-.45.58.45.58.45Zm-7.13,14.8h13.07l-6.52-13.77-6.55,13.77Z"/>
          <path class="cls-1" d="m187.62,5.05s.06-.19.48-.19.48.19.48.19v19.94c0,.16-.22.32-.48.32-.22,0-.32-.16-.32-.16l-15.16-18.33v18.27s-.06.22-.48.22-.48-.22-.48-.22V5.18c0-.16.26-.32.51-.32.19,0,.32.16.32.16l15.12,18.4V5.05Z"/>
          <path class="cls-1" d="m211.67,5.05s.06-.19.48-.19.48.19.48.19v19.94c0,.16-.22.32-.48.32-.22,0-.32-.16-.32-.16l-15.16-18.33v18.27s-.06.22-.48.22-.48-.22-.48-.22V5.18c0-.16.26-.32.51-.32.19,0,.32.16.32.16l15.12,18.4V5.05Z"/>
          <path class="cls-1" d="m227.54,4.95l9.47,19.88s.1.16.1.26c0,.13-.16.22-.55.22-.35,0-.55-.26-.55-.26l-2.09-4.4h-13.94l-2.09,4.4s-.19.26-.55.26c-.39,0-.55-.1-.55-.22,0-.1.1-.26.1-.26l9.47-19.88s.16-.45.58-.45.58.45.58.45Zm-7.13,14.8h13.07l-6.52-13.77-6.55,13.77Z"/>
        </g>
        <g>
          <path class="cls-1" d="m84.64,43.19c2.63.32,5.55,2.34,5.55,5.91,0,4.01-2.99,6.9-8.25,6.9h-9.09c-.39,0-.64-.26-.64-.64v-22.8c0-.39.26-.64.64-.64h6.52c5.49,0,9.15,1.51,9.15,6.1,0,3.24-2.09,4.69-3.89,5.17Zm-11.46-.32h8.89c3.66,0,5.43-2.09,5.43-4.88,0-3.95-3.15-5.11-8.12-5.11h-6.2v9.99Zm9.41.9h-9.41v11.27h8.25c5.33,0,7.71-2.67,7.71-5.91s-2.86-5.36-6.55-5.36Z"/>
          <path class="cls-1" d="m112,35.74s.06-.19.48-.19.48.19.48.19v13.65c0,3.63-3.37,6.9-8.7,6.9s-8.64-3.28-8.64-6.9v-13.65s.06-.19.48-.19.48.19.48.19v13.65c0,3.21,2.67,5.97,7.67,5.97s7.74-2.76,7.74-5.97v-13.65Z"/>
          <path class="cls-1" d="m133.35,55.07s.23.06.23.45c0,.42-.23.48-.23.48h-13c-.32,0-.55-.22-.55-.55v-19.36c0-.35.23-.55.55-.55h12.23s.22.06.22.45c0,.42-.22.48-.22.48h-11.85v10.69h10.18s.22.06.22.48-.22.48-.22.48h-10.18v6.94h12.62Z"/>
          <path class="cls-1" d="m154.65,35.74s.06-.19.48-.19.48.19.48.19v19.94c0,.16-.23.32-.48.32-.22,0-.32-.16-.32-.16l-15.16-18.33v18.27s-.06.22-.48.22-.48-.22-.48-.22v-19.91c0-.16.26-.32.51-.32.19,0,.32.16.32.16l15.12,18.4v-18.37Z"/>
          <path class="cls-1" d="m161.2,45.82c0-6.29,4.91-10.63,10.18-10.63s10.15,4.33,10.15,10.63-4.62,10.47-10.15,10.47-10.18-4.24-10.18-10.47Zm19.39,0c0-5.81-4.27-9.66-9.22-9.66s-9.22,3.85-9.22,9.66,4.3,9.5,9.22,9.5,9.22-3.79,9.22-9.5Z"/>
        </g>
      </g>
      <g>
        <g>
          <path class="cls-1" d="m30.53,48.97c8.49,0,14.75-5.97,14.75-8.78v-7.69h-11.31s-.46,0-.46-.86.46-.86.46-.86h11.88c.69,0,1.15.46,1.15,1.15v8.26c0,4.02-7.4,10.5-16.7,10.5-11.53,0-20.95-7.23-20.95-21.17,0-16.18,10.67-23.01,21.46-23.01,8.32,0,14.17,4.42,14.17,10.44,0,2.58-1.2,4.65-1.66,4.65-.34,0-.57-.23-.57-.57,0-.4.52-1.43.57-3.61.17-5.51-5.34-9.18-12.51-9.18-9.98,0-19.74,5.68-19.74,21.29,0,13.2,8.61,19.45,19.45,19.45Z"/>
          <path class="cls-1" d="m17.3,17.76c0-8.36,6.66-11.11,16.66-11.11h11.87c.7,0,1.17.47,1.17,1.17v41.5c0,.7-.47,1.17-1.17,1.17h-16.54c-9.59,0-15.02-5.26-15.02-12.57,0-6.49,5.32-10.17,10.11-10.76-3.27-.88-7.07-3.51-7.07-9.41Zm27.94-9.35h-11.28c-9.06,0-14.79,2.1-14.79,9.29,0,5.09,3.22,8.89,9.88,8.89h16.19s0-18.18,0-18.18Zm-29.05,29.58c0,5.9,4.33,10.76,14.03,10.76h15.02s0-20.52,0-20.52h-17.13c-6.72,0-11.93,3.97-11.93,9.76Z"/>
        </g>
        <path class="cls-1" d="m55.2,2v53.2H2V2h53.2m0-2H2C.9,0,0,.9,0,2v53.2c0,1.1.9,2,2,2h53.2c1.1,0,2-.9,2-2V2c0-1.1-.9-2-2-2h0Z"/>
      </g>
    </g>
  </g>
</svg>